<svg version="1.1" id="Layer_1" xmlns="http://www.w3.org/2000/svg" xmlns:xlink="http://www.w3.org/1999/xlink" x="0px" y="0px"
	 width="100%" viewBox="0 0 256 256" enable-background="new 0 0 256 256" xml:space="preserve">
<path fill="#36BDB3" opacity="1.000000" stroke="none" 
	d="
M257.000000,113.000000 
	C257.000000,123.354225 257.000000,133.708450 256.667603,144.733734 
	C256.159943,146.213913 255.967010,147.019653 255.811890,147.832611 
	C245.316238,202.832626 213.311951,238.210327 159.330826,253.468475 
	C154.290512,254.893158 149.113525,255.834320 144.000000,257.000000 
	C133.645767,257.000000 123.291542,257.000000 112.311226,256.646362 
	C110.237434,255.936432 108.804840,255.494400 107.339836,255.236343 
	C55.469776,246.099579 14.692681,206.739853 3.873940,155.377518 
	C3.001116,151.233749 1.961897,147.125015 1.000000,143.000000 
	C1.000000,133.645767 1.000000,124.291542 1.353691,114.309769 
	C2.030577,112.398598 2.452612,111.130928 2.662732,109.829063 
	C11.338330,56.076069 50.292427,15.192414 103.724434,3.727200 
	C107.185333,2.984574 110.576431,1.916619 114.000000,1.000000 
	C123.020897,1.000000 132.041794,1.000000 141.748260,1.331375 
	C142.754974,1.746855 143.071396,1.865195 143.397934,1.910228 
	C202.549423,10.067592 244.709747,50.346237 255.563797,109.027611 
	C255.816437,110.393555 256.511353,111.677704 257.000000,113.000000 
M152.946213,222.567657 
	C155.502991,223.769196 158.003326,225.113617 160.625565,226.149460 
	C179.704773,233.686020 193.763138,225.882019 197.320984,205.716476 
	C199.323532,194.366104 198.083939,183.086288 195.411423,172.035645 
	C194.311920,167.489288 195.632401,166.124603 199.752487,164.841232 
	C212.068268,161.005020 223.805618,155.867386 233.121979,146.516907 
	C243.504761,136.096039 244.169464,122.683075 233.675552,112.395813 
	C227.975357,106.807854 220.780258,102.519882 213.725739,98.608009 
	C207.850891,95.350296 201.197464,93.496651 194.566025,90.894409 
	C195.203369,87.629654 195.915512,84.405281 196.453064,81.152061 
	C198.364548,69.583984 199.521408,57.993713 195.970932,46.521927 
	C191.732086,32.825970 180.701752,26.257807 166.947586,29.942652 
	C160.936325,31.553110 154.968994,34.189178 149.700958,37.502941 
	C142.439896,42.070381 135.859955,47.720623 128.675720,53.142895 
	C126.761154,51.432384 124.722466,49.505833 122.574432,47.710068 
	C113.198944,39.872139 103.468964,32.584591 91.241188,29.782850 
	C77.200722,26.565771 65.467812,33.116547 62.297295,47.152985 
	C60.497482,55.121067 60.481537,63.624905 60.664410,71.865219 
	C60.806042,78.247574 62.502720,84.595413 63.557308,91.269821 
	C61.587086,91.923553 59.712574,92.521378 57.854328,93.166061 
	C46.632252,97.059357 35.765392,101.626175 26.825817,109.777428 
	C14.256169,121.238632 13.518701,135.761902 26.055389,147.066086 
	C32.233185,152.636536 39.964298,156.636475 47.378445,160.630722 
	C52.418766,163.346115 58.128998,164.818008 63.745758,166.923218 
	C62.936207,171.034439 62.035530,174.898697 61.431805,178.808792 
	C59.692520,190.073425 58.805431,201.367233 62.628445,212.402267 
	C67.128304,225.391006 77.824654,231.952240 90.829605,227.967804 
	C99.546806,225.297058 107.670990,220.325073 115.614159,215.627930 
	C120.536575,212.717117 124.623276,208.393066 128.649521,205.063583 
	C136.741379,210.913040 144.531433,216.544327 152.946213,222.567657 
z"/>
<path fill="#FEFFFF" opacity="1.000000" stroke="none" 
	d="
M113.531342,1.000000 
	C110.576431,1.916619 107.185333,2.984574 103.724434,3.727200 
	C50.292427,15.192414 11.338330,56.076069 2.662732,109.829063 
	C2.452612,111.130928 2.030577,112.398598 1.353691,113.841110 
	C1.000000,76.406380 1.000000,38.812759 1.000000,1.000000 
	C38.353943,1.000000 75.708313,1.000000 113.531342,1.000000 
z"/>
<path fill="#FEFFFE" opacity="1.000000" stroke="none" 
	d="
M257.000000,112.531342 
	C256.511353,111.677704 255.816437,110.393555 255.563797,109.027611 
	C244.709747,50.346237 202.549423,10.067592 143.397934,1.910228 
	C143.071396,1.865195 142.754974,1.746855 142.216919,1.331375 
	C180.259323,1.000000 218.518631,1.000000 257.000000,1.000000 
	C257.000000,38.020599 257.000000,75.041641 257.000000,112.531342 
z"/>
<path fill="#FEFFFF" opacity="1.000000" stroke="none" 
	d="
M1.000000,143.468658 
	C1.961897,147.125015 3.001116,151.233749 3.873940,155.377518 
	C14.692681,206.739853 55.469776,246.099579 107.339836,255.236343 
	C108.804840,255.494400 110.237434,255.936432 111.842567,256.646362 
	C75.072075,257.000000 38.144142,257.000000 1.000000,257.000000 
	C1.000000,219.312714 1.000000,181.625015 1.000000,143.468658 
z"/>
<path fill="#FEFFFF" opacity="1.000000" stroke="none" 
	d="
M144.468658,257.000000 
	C149.113525,255.834320 154.290512,254.893158 159.330826,253.468475 
	C213.311951,238.210327 245.316238,202.832626 255.811890,147.832611 
	C255.967010,147.019653 256.159943,146.213913 256.667603,145.202393 
	C257.000000,182.260605 257.000000,219.521225 257.000000,257.000000 
	C219.646057,257.000000 182.291687,257.000000 144.468658,257.000000 
z"/>
<path fill="#F9FDFD" opacity="1.000000" stroke="none" 
	d="
M152.633850,222.371643 
	C144.531433,216.544327 136.741379,210.913040 128.649521,205.063583 
	C124.623276,208.393066 120.536575,212.717117 115.614159,215.627930 
	C107.670990,220.325073 99.546806,225.297058 90.829605,227.967804 
	C77.824654,231.952240 67.128304,225.391006 62.628445,212.402267 
	C58.805431,201.367233 59.692520,190.073425 61.431805,178.808792 
	C62.035530,174.898697 62.936207,171.034439 63.745758,166.923218 
	C58.128998,164.818008 52.418766,163.346115 47.378445,160.630722 
	C39.964298,156.636475 32.233185,152.636536 26.055389,147.066086 
	C13.518701,135.761902 14.256169,121.238632 26.825817,109.777428 
	C35.765392,101.626175 46.632252,97.059357 57.854328,93.166061 
	C59.712574,92.521378 61.587086,91.923553 63.557308,91.269821 
	C62.502720,84.595413 60.806042,78.247574 60.664410,71.865219 
	C60.481537,63.624905 60.497482,55.121067 62.297295,47.152985 
	C65.467812,33.116547 77.200722,26.565771 91.241188,29.782850 
	C103.468964,32.584591 113.198944,39.872139 122.574432,47.710068 
	C124.722466,49.505833 126.761154,51.432384 128.675720,53.142895 
	C135.859955,47.720623 142.439896,42.070381 149.700958,37.502941 
	C154.968994,34.189178 160.936325,31.553110 166.947586,29.942652 
	C180.701752,26.257807 191.732086,32.825970 195.970932,46.521927 
	C199.521408,57.993713 198.364548,69.583984 196.453064,81.152061 
	C195.915512,84.405281 195.203369,87.629654 194.566025,90.894409 
	C201.197464,93.496651 207.850891,95.350296 213.725739,98.608009 
	C220.780258,102.519882 227.975357,106.807854 233.675552,112.395813 
	C244.169464,122.683075 243.504761,136.096039 233.121979,146.516907 
	C223.805618,155.867386 212.068268,161.005020 199.752487,164.841232 
	C195.632401,166.124603 194.311920,167.489288 195.411423,172.035645 
	C198.083939,183.086288 199.323532,194.366104 197.320984,205.716476 
	C193.763138,225.882019 179.704773,233.686020 160.625565,226.149460 
	C158.003326,225.113617 155.502991,223.769196 152.633850,222.371643 
M75.065643,215.450134 
	C81.320129,221.526093 88.724915,220.361069 95.008263,216.801346 
	C103.905487,211.760757 112.001617,205.287628 120.304893,199.241013 
	C121.319069,198.502487 121.499123,196.618500 122.113327,195.151703 
	C126.640373,195.151703 131.599655,195.151703 135.681061,195.151703 
	C136.784805,197.102753 137.219971,198.819138 138.322815,199.666809 
	C145.169861,204.929443 151.888168,210.451828 159.225739,214.946854 
	C163.177246,217.367554 168.192657,218.529648 172.876038,219.159866 
	C179.127823,220.001144 183.531158,217.104401 185.834015,211.198914 
	C191.341995,197.074051 188.154404,183.162430 185.017120,169.227097 
	C180.624313,169.949310 176.933182,170.556168 172.532303,171.279694 
	C174.889725,165.879211 174.070282,159.226700 182.405853,159.962143 
	C177.507233,143.693451 170.781067,129.099930 162.962036,114.967491 
	C158.780365,107.409378 158.900467,106.973625 165.943268,101.109055 
	C169.006897,106.395370 172.045929,111.639267 175.507462,117.612160 
	C178.004822,110.683960 180.174225,104.665611 182.489624,98.242256 
	C177.938583,97.254684 174.131790,96.428604 170.224167,95.580643 
	C171.650650,92.618935 172.927032,89.968887 174.371460,86.969925 
	C177.727768,87.497643 181.252701,88.051872 185.059067,88.650352 
	C187.792450,77.074249 189.815475,65.845360 188.035141,54.226707 
	C185.911743,40.369308 177.253738,34.711964 164.538010,40.710571 
	C155.506332,44.971237 147.537918,51.558632 139.339462,57.447952 
	C137.801788,58.552532 137.420090,61.266346 136.233383,63.822502 
	C131.835815,63.822502 126.131691,63.822502 122.025604,63.822502 
	C120.952499,61.204098 120.740761,58.948025 119.513710,57.983143 
	C112.857811,52.749329 106.229149,47.377522 99.020462,42.991024 
	C95.059540,40.580791 90.058540,39.382896 85.378662,38.773369 
	C79.138466,37.960621 74.618217,40.871059 72.396652,46.760559 
	C67.078773,60.858551 70.076691,74.774239 73.245201,88.692833 
	C77.639771,87.996109 81.310730,87.414116 85.466896,86.755188 
	C83.896568,92.619286 83.412750,98.264648 74.829285,98.085358 
	C82.074638,114.452293 88.836349,129.726685 94.987816,143.622589 
	C93.137962,146.375244 91.416832,148.936371 89.464500,151.841522 
	C87.182045,147.918564 85.246353,144.591599 82.735870,140.276718 
	C80.174126,147.429504 78.032204,153.410080 75.892799,159.383606 
	C78.066093,160.212784 79.564453,160.784454 81.207489,161.411316 
	C79.442329,164.251770 78.024689,168.868835 76.154716,169.059937 
	C72.157936,169.468445 72.625526,171.973862 72.105942,174.092407 
	C71.314354,177.320007 70.642563,180.616882 70.359711,183.921982 
	C69.451508,194.534470 68.021088,205.264008 75.065643,215.450134 
M208.105301,106.357758 
	C202.742294,104.377754 197.379288,102.397751 192.206711,100.488052 
	C188.511337,109.765373 185.160934,118.085403 181.909698,126.444016 
	C181.457504,127.606544 180.984634,129.155228 181.384155,130.192993 
	C184.829575,139.142731 188.473053,148.016235 192.182220,157.222122 
	C204.055466,153.707779 215.443741,149.632233 224.744675,141.339401 
	C233.787369,133.276840 234.000595,124.558121 224.763000,116.741982 
	C220.007553,112.718269 214.147125,110.000496 208.105301,106.357758 
M66.267387,156.857803 
	C69.785164,148.076950 73.318329,139.302170 76.792343,130.504028 
	C77.078865,129.778381 77.256500,128.780060 76.991409,128.101013 
	C73.449806,119.029404 69.820221,109.992149 65.903259,100.170929 
	C58.748787,103.135124 51.609940,105.490150 45.083725,108.988167 
	C39.896904,111.768272 34.954319,115.445770 30.812534,119.625778 
	C25.215153,125.274818 25.296316,132.031570 30.454571,138.041611 
	C33.016418,141.026489 36.046352,144.039703 39.503819,145.740585 
	C47.968494,149.904678 56.804855,153.313232 66.267387,156.857803 
z"/>
<path fill="#37BEB3" opacity="1.000000" stroke="none" 
	d="
M74.822861,215.162598 
	C68.021088,205.264008 69.451508,194.534470 70.359711,183.921982 
	C70.642563,180.616882 71.314354,177.320007 72.105942,174.092407 
	C72.625526,171.973862 72.157936,169.468445 76.154716,169.059937 
	C78.024689,168.868835 79.442329,164.251770 81.207489,161.411316 
	C79.564453,160.784454 78.066093,160.212784 75.892799,159.383606 
	C78.032204,153.410080 80.174126,147.429504 82.735870,140.276718 
	C85.246353,144.591599 87.182045,147.918564 89.464500,151.841522 
	C91.416832,148.936371 93.137962,146.375244 94.987816,143.622589 
	C88.836349,129.726685 82.074638,114.452293 74.829285,98.085358 
	C83.412750,98.264648 83.896568,92.619286 85.466896,86.755188 
	C81.310730,87.414116 77.639771,87.996109 73.245201,88.692833 
	C70.076691,74.774239 67.078773,60.858551 72.396652,46.760559 
	C74.618217,40.871059 79.138466,37.960621 85.378662,38.773369 
	C90.058540,39.382896 95.059540,40.580791 99.020462,42.991024 
	C106.229149,47.377522 112.857811,52.749329 119.513710,57.983143 
	C120.740761,58.948025 120.952499,61.204098 122.025604,63.822502 
	C126.131691,63.822502 131.835815,63.822502 136.233383,63.822502 
	C137.420090,61.266346 137.801788,58.552532 139.339462,57.447952 
	C147.537918,51.558632 155.506332,44.971237 164.538010,40.710571 
	C177.253738,34.711964 185.911743,40.369308 188.035141,54.226707 
	C189.815475,65.845360 187.792450,77.074249 185.059067,88.650352 
	C181.252701,88.051872 177.727768,87.497643 174.371460,86.969925 
	C172.927032,89.968887 171.650650,92.618935 170.224167,95.580643 
	C174.131790,96.428604 177.938583,97.254684 182.489624,98.242256 
	C180.174225,104.665611 178.004822,110.683960 175.507462,117.612160 
	C172.045929,111.639267 169.006897,106.395370 165.943268,101.109055 
	C158.900467,106.973625 158.780365,107.409378 162.962036,114.967491 
	C170.781067,129.099930 177.507233,143.693451 182.405853,159.962143 
	C174.070282,159.226700 174.889725,165.879211 172.532303,171.279694 
	C176.933182,170.556168 180.624313,169.949310 185.017120,169.227097 
	C188.154404,183.162430 191.341995,197.074051 185.834015,211.198914 
	C183.531158,217.104401 179.127823,220.001144 172.876038,219.159866 
	C168.192657,218.529648 163.177246,217.367554 159.225739,214.946854 
	C151.888168,210.451828 145.169861,204.929443 138.322815,199.666809 
	C137.219971,198.819138 136.784805,197.102753 135.681061,195.151703 
	C131.599655,195.151703 126.640373,195.151703 122.113327,195.151703 
	C121.499123,196.618500 121.319069,198.502487 120.304893,199.241013 
	C112.001617,205.287628 103.905487,211.760757 95.008263,216.801346 
	C88.724915,220.361069 81.320129,221.526093 74.822861,215.162598 
M156.693649,176.222565 
	C175.212830,158.766830 170.856445,133.282944 147.593216,123.058914 
	C145.309113,122.055054 142.954773,121.211769 140.662750,120.224960 
	C133.795532,117.268356 126.700188,114.710228 120.213989,111.069885 
	C117.882706,109.761482 115.555344,105.612053 115.897087,103.126419 
	C116.283058,100.319153 119.307297,97.426125 121.887016,95.523170 
	C123.672234,94.206284 126.635773,94.242706 129.094162,94.126450 
	C137.830185,93.713341 145.158569,97.585892 152.429245,102.598305 
	C156.581512,97.377914 160.560364,92.375557 164.472397,87.457199 
	C149.403580,70.405373 118.558182,67.871811 101.705551,81.884483 
	C90.881638,90.884377 87.335472,104.834969 92.835701,117.481857 
	C96.495720,125.897461 103.293381,131.055817 111.460983,134.656357 
	C120.129799,138.477844 128.867599,142.152496 137.436981,146.185150 
	C140.978821,147.851913 142.914932,150.976471 142.474640,155.153671 
	C142.021179,159.455826 139.624756,162.437241 135.537781,163.327087 
	C131.708420,164.160873 127.359108,165.258011 123.818909,164.233673 
	C115.666435,161.874802 107.866493,158.297531 99.020073,154.864014 
	C95.456108,159.079391 90.876625,164.495895 86.334526,169.868179 
	C101.722359,186.676331 136.783081,192.625549 156.693649,176.222565 
z"/>
<path fill="#37BEB3" opacity="1.000000" stroke="none" 
	d="
M208.445648,106.525177 
	C214.147125,110.000496 220.007553,112.718269 224.763000,116.741982 
	C234.000595,124.558121 233.787369,133.276840 224.744675,141.339401 
	C215.443741,149.632233 204.055466,153.707779 192.182220,157.222122 
	C188.473053,148.016235 184.829575,139.142731 181.384155,130.192993 
	C180.984634,129.155228 181.457504,127.606544 181.909698,126.444016 
	C185.160934,118.085403 188.511337,109.765373 192.206711,100.488052 
	C197.379288,102.397751 202.742294,104.377754 208.445648,106.525177 
z"/>
<path fill="#36BDB3" opacity="1.000000" stroke="none" 
	d="
M65.879517,156.941803 
	C56.804855,153.313232 47.968494,149.904678 39.503819,145.740585 
	C36.046352,144.039703 33.016418,141.026489 30.454571,138.041611 
	C25.296316,132.031570 25.215153,125.274818 30.812534,119.625778 
	C34.954319,115.445770 39.896904,111.768272 45.083725,108.988167 
	C51.609940,105.490150 58.748787,103.135124 65.903259,100.170929 
	C69.820221,109.992149 73.449806,119.029404 76.991409,128.101013 
	C77.256500,128.780060 77.078865,129.778381 76.792343,130.504028 
	C73.318329,139.302170 69.785164,148.076950 65.879517,156.941803 
z"/>
<path fill="#FCFEFE" opacity="1.000000" stroke="none" 
	d="
M156.426163,176.457687 
	C136.783081,192.625549 101.722359,186.676331 86.334526,169.868179 
	C90.876625,164.495895 95.456108,159.079391 99.020073,154.864014 
	C107.866493,158.297531 115.666435,161.874802 123.818909,164.233673 
	C127.359108,165.258011 131.708420,164.160873 135.537781,163.327087 
	C139.624756,162.437241 142.021179,159.455826 142.474640,155.153671 
	C142.914932,150.976471 140.978821,147.851913 137.436981,146.185150 
	C128.867599,142.152496 120.129799,138.477844 111.460983,134.656357 
	C103.293381,131.055817 96.495720,125.897461 92.835701,117.481857 
	C87.335472,104.834969 90.881638,90.884377 101.705551,81.884483 
	C118.558182,67.871811 149.403580,70.405373 164.472397,87.457199 
	C160.560364,92.375557 156.581512,97.377914 152.429245,102.598305 
	C145.158569,97.585892 137.830185,93.713341 129.094162,94.126450 
	C126.635773,94.242706 123.672234,94.206284 121.887016,95.523170 
	C119.307297,97.426125 116.283058,100.319153 115.897087,103.126419 
	C115.555344,105.612053 117.882706,109.761482 120.213989,111.069885 
	C126.700188,114.710228 133.795532,117.268356 140.662750,120.224960 
	C142.954773,121.211769 145.309113,122.055054 147.593216,123.058914 
	C170.856445,133.282944 175.212830,158.766830 156.426163,176.457687 
z"/>
</svg>